<svg width="33" height="26" viewBox="0 0 33 26" fill="none" xmlns="http://www.w3.org/2000/svg">
<path d="M31.775 2.09139C31.7729 2.09139 31.7707 2.09139 31.7687 2.09139H29.6395V1.30375C29.6509 0.991998 29.4644 0.711824 29.1873 0.624742C27.7091 0.205966 26.1869 -0.00401587 24.6587 5.81587e-05C22.1464 5.81587e-05 18.7233 0.611162 16.1921 3.39508C13.6798 0.584002 10.2316 5.81587e-05 7.72549 5.81587e-05C6.19735 -0.00401587 4.67517 0.205966 3.19697 0.624742C2.91983 0.711824 2.73328 0.991998 2.74475 1.30375V2.0846H0.628088C0.281226 2.0846 0 2.38863 0 2.76361V24.451C0 24.826 0.281226 25.13 0.628088 25.13C0.735962 25.1297 0.841952 25.0993 0.935851 25.0417C0.99866 25.0078 7.27954 21.2936 16.0477 23.6837H16.1419H16.1984C16.2485 23.6903 16.299 23.6903 16.3491 23.6837C25.1424 21.2733 31.4233 24.9806 31.4609 25.0417C31.6553 25.163 31.8947 25.163 32.089 25.0417C32.2822 24.9212 32.4017 24.6989 32.4031 24.4578V2.7704C32.4031 2.39542 32.1219 2.09139 31.775 2.09139ZM1.25618 23.3714V3.4494H2.75731V20.4788C2.75338 20.8538 3.03139 21.1612 3.37825 21.1655C3.41217 21.1659 3.44608 21.1633 3.47961 21.1578C4.77897 20.9433 6.09081 20.8299 7.40516 20.8183C9.22583 20.7842 11.0389 21.0803 12.769 21.6942C8.86193 21.1835 4.89885 21.7608 1.25618 23.3714ZM7.40516 19.4671C6.26275 19.4699 5.12167 19.5493 3.98836 19.7048V1.84016C5.21125 1.54564 6.46004 1.39533 7.71292 1.39202C10.062 1.39202 13.3029 1.97596 15.5515 4.71914L15.5703 21.6331C14.2639 20.7097 11.7138 19.4671 7.40516 19.4671ZM16.8265 4.71914C19.075 2.00312 22.316 1.39202 24.665 1.39202C25.9178 1.39601 27.1666 1.54624 28.3896 1.84016V19.7048C27.2626 19.5478 26.1278 19.4662 24.9916 19.4603C20.7081 19.4603 18.1518 20.7029 16.8265 21.6263V4.71914ZM31.1406 23.3714C27.4902 21.7564 23.518 21.179 19.6026 21.6942C21.3409 21.078 23.1626 20.7819 24.9916 20.8183C26.3142 20.8263 27.6345 20.9375 28.9423 21.151C29.2852 21.2073 29.6055 20.9523 29.6575 20.5816C29.6626 20.5454 29.665 20.5087 29.6646 20.472V3.4494H31.1657L31.1406 23.3714Z" fill="#FFFBED"/>
</svg>
