<svg width="29" height="27" viewBox="0 0 29 27" fill="none" xmlns="http://www.w3.org/2000/svg">
<path d="M15.292 7.95376C15.3808 8.00964 15.4784 8.03786 15.5792 8.03786C15.633 8.03786 15.6862 8.02996 15.74 8.01359C15.8898 7.96731 16.0167 7.86063 16.0966 7.71276C16.1791 7.56037 16.2015 7.38427 16.1608 7.21664C16.1216 7.05522 16.0271 6.92033 15.8956 6.83736C15.6183 6.66239 15.2571 6.77076 15.0916 7.07836C15.0096 7.23019 14.9866 7.40628 15.0273 7.57391C15.066 7.7359 15.16 7.87079 15.292 7.95376ZM15.4106 7.28042C15.4544 7.19971 15.5312 7.15343 15.6084 7.15343C15.6429 7.15343 15.6779 7.16302 15.7087 7.18278C15.7551 7.21213 15.7885 7.2601 15.8026 7.31824C15.8183 7.38258 15.8094 7.45087 15.7771 7.5107L15.7765 7.51126C15.7452 7.5694 15.6967 7.61116 15.6382 7.62866C15.5839 7.64446 15.5275 7.63882 15.4784 7.60778C15.432 7.57843 15.3985 7.53045 15.3844 7.47232C15.3688 7.40798 15.3782 7.34025 15.4106 7.28042Z" fill="#FFFBED"/>
<path d="M13.5269 12.0547C13.5269 11.6032 13.3316 11.2488 13.3092 11.2098L13.0575 10.7701L12.8059 11.2098C12.7834 11.2488 12.5882 11.6032 12.5882 12.0547C12.5882 12.5063 12.7834 12.8607 12.8059 12.8997L13.0575 13.3393L13.3092 12.8997C13.3311 12.8607 13.5269 12.5063 13.5269 12.0547ZM13.0575 12.7315C13.0575 12.7315 12.8842 12.4284 12.8842 12.0547C12.8842 11.6811 13.0575 11.378 13.0575 11.378C13.0575 11.378 13.2309 11.6811 13.2309 12.0547C13.2309 12.4284 13.0575 12.7315 13.0575 12.7315Z" fill="#FFFBED"/>
<path d="M11.8614 14.2029C11.5659 14.5224 11.4725 14.922 11.4625 14.9666L11.3529 15.47L11.8186 15.3515C11.8599 15.3408 12.23 15.2398 12.525 14.9203C12.8205 14.6008 12.9139 14.2012 12.9239 14.1567L13.0335 13.6532L12.5678 13.7717C12.5271 13.7824 12.1569 13.8835 11.8614 14.2029ZM12.3162 14.6945C12.0718 14.9587 11.7513 15.0405 11.7513 15.0405C11.7513 15.0405 11.827 14.694 12.0713 14.4298C12.3156 14.1657 12.6362 14.0838 12.6362 14.0838C12.6362 14.0838 12.5605 14.4304 12.3162 14.6945Z" fill="#FFFBED"/>
<path d="M14.2531 14.2029C13.9576 13.8835 13.588 13.7824 13.5467 13.7717L13.081 13.6532L13.1907 14.1567C13.2006 14.2012 13.294 14.6014 13.5895 14.9203C13.885 15.2398 14.2547 15.3408 14.2959 15.3515L14.7616 15.47L14.652 14.9666C14.6421 14.922 14.5486 14.5218 14.2531 14.2029ZM13.7989 14.694C13.554 14.4304 13.4789 14.0833 13.4789 14.0833C13.4789 14.0833 13.7994 14.1651 14.0438 14.4293C14.2881 14.6934 14.3638 15.04 14.3638 15.04C14.3638 15.04 14.0432 14.9581 13.7989 14.694Z" fill="#FFFBED"/>
<path d="M12.3386 13.6017C12.4566 13.6017 12.5313 13.5887 12.5313 13.5887L12.9985 13.5075L12.7291 13.0887C12.7046 13.0514 12.4801 12.7179 12.0958 12.5401C11.8656 12.434 11.6364 12.4114 11.4845 12.4114C11.3665 12.4114 11.2918 12.4244 11.2918 12.4244L10.8246 12.5056L11.094 12.9244C11.1185 12.9617 11.343 13.2952 11.7272 13.473C11.957 13.5791 12.1867 13.6017 12.3386 13.6017ZM11.3357 12.7404C11.3357 12.7404 11.3936 12.7308 11.4839 12.7308C11.6087 12.7308 11.7951 12.7489 11.9789 12.8336C12.2968 12.9803 12.4864 13.2715 12.4864 13.2715C12.4864 13.2715 12.4284 13.2811 12.3381 13.2811C12.2133 13.2811 12.0269 13.2631 11.8431 13.1784C11.5252 13.0322 11.3357 12.7404 11.3357 12.7404Z" fill="#FFFBED"/>
<path d="M14.8227 12.4244C14.8227 12.4244 14.7475 12.4114 14.6301 12.4114C14.4781 12.4114 14.2489 12.434 14.0187 12.5401C13.6344 12.7173 13.4099 13.0509 13.3854 13.0887L13.1134 13.5069L13.5833 13.5887C13.5833 13.5887 13.6585 13.6017 13.7759 13.6017C13.9279 13.6017 14.1571 13.5791 14.3873 13.473C14.7715 13.2958 14.996 12.9622 15.0206 12.9244L15.2926 12.5062L14.8227 12.4244ZM14.2709 13.179C14.0871 13.2642 13.9002 13.2817 13.7759 13.2817C13.6851 13.2817 13.6277 13.2721 13.6277 13.2721C13.6277 13.2721 13.8172 12.9809 14.1351 12.8341C14.3189 12.7489 14.5058 12.7314 14.6301 12.7314C14.7209 12.7314 14.7783 12.741 14.7783 12.741C14.7783 12.741 14.5888 13.0322 14.2709 13.179Z" fill="#FFFBED"/>
<path d="M28.9963 14.9417C28.9963 14.6616 28.9769 14.3849 28.9464 14.1104C28.9458 14.111 28.9453 14.1122 28.9448 14.1127C28.9516 14.0695 28.9595 14.0267 28.9595 13.9829C28.9595 13.5787 28.6542 13.2154 28.1161 12.892C27.979 11.7692 27.3048 10.9659 26.6411 10.4028C27.7446 10.0333 28.969 8.89172 28.9595 7.46719C28.949 5.95498 27.8471 4.56574 26.4388 4.2116C26.7525 3.28469 26.6385 2.34981 26.1067 1.54531C25.3879 0.458972 24.0516 -0.15024 22.7757 0.0319546C21.5729 0.202762 20.6203 1.02548 20.0664 2.36062C18.8189 1.61647 16.881 1.59085 15.9793 2.72103C15.458 3.37294 15.1958 4.24804 15.1832 5.21424C14.0602 4.92786 12.8679 4.88174 11.7818 5.11347C11.5916 5.07987 11.4029 5.05824 11.2195 5.07133C11.3225 4.81683 11.3803 4.52874 11.3877 4.21957C11.4066 3.40881 11.0882 2.59064 10.5348 2.03154C9.64312 1.13024 8.26375 0.93894 7.31054 1.53733C6.86231 0.683299 6.11719 0.16006 5.22546 0.0843354C4.27751 0.00462543 3.33954 0.477761 2.85453 1.29308C2.56867 1.77362 2.2103 2.76771 2.82983 4.22071C2.25444 4.40006 1.70952 4.80658 1.35167 5.33779C1.17406 5.6014 1.05899 5.87868 0.999082 6.15937C0.847745 6.30001 0.703766 6.45316 0.573448 6.62852C-0.724996 8.37759 0.387956 11.1128 1.85928 12.9017C1.33223 13.2228 1.03324 13.5827 1.03324 13.9829C1.03324 14.0507 1.04375 14.1173 1.06056 14.1833C1.03481 14.4344 1.01485 14.6861 1.01485 14.9423C1.01485 15.0408 1.02115 15.1387 1.02483 15.2366L1.01485 15.2383C1.01695 15.2526 1.0243 15.2651 1.02641 15.2793C1.19351 19.0377 4.13248 22.283 8.40037 23.9569C8.22329 24.0941 8.07721 24.2763 8.07721 24.5143C8.07721 25.6547 11.7235 26.449 14.9961 26.449C18.2688 26.449 21.9145 25.6542 21.9145 24.5143C21.9145 24.2786 21.7721 24.0987 21.5971 23.962C26 22.2392 28.9963 18.8464 28.9963 14.9417ZM28.1403 13.5485C28.3305 13.6977 28.4335 13.844 28.4335 13.9823C28.4335 14.1577 28.2748 14.345 27.9742 14.5352C28.0652 14.2107 28.1245 13.881 28.1403 13.5485ZM16.376 3.09339C17.139 2.13801 19.0296 2.25017 20.0417 3.01254L20.3181 3.22092L20.4374 2.87931C20.8956 1.56296 21.7505 0.752191 22.8441 0.596187C23.915 0.445308 25.0805 0.970824 25.6795 1.87667C26.1593 2.60203 26.2134 3.46404 25.8314 4.30327L25.6669 4.66538L26.0368 4.71207C27.3274 4.87547 28.4251 6.13888 28.434 7.47117C28.443 8.79493 26.9543 9.92396 25.978 9.95926L25.1593 9.98887L25.8408 10.4808C26.9758 11.2995 27.5392 12.1274 27.6132 13.0845C27.6595 13.6834 27.5455 14.2972 27.3043 14.8683C26.7142 15.108 25.9013 15.3431 24.8855 15.5538C24.8146 15.5663 24.7426 15.5788 24.6701 15.5913C25.3453 13.4557 25.2497 11.0968 23.9265 10.0156C22.0874 8.5148 18.717 10.1528 17.0418 12.5618C16.8647 12.8163 16.7149 13.0742 16.5851 13.3338C16.5489 12.112 15.9756 11.0359 15.1101 10.3749C17.3555 10.4347 19.1794 9.30336 19.7858 8.87635C20.1174 8.92246 20.4227 8.95093 20.6828 8.95093C22.0774 8.95093 22.5014 8.3736 22.6092 8.1618C22.7437 7.89819 22.7295 7.60497 22.5745 7.41481C22.493 7.31517 22.3806 7.26279 22.2576 7.2514C22.2713 7.1956 22.2897 7.14038 22.2949 7.08458C22.3275 6.76631 22.2208 6.4543 22.0086 6.2499C21.8147 6.06315 21.5346 5.97149 21.2414 5.9954C21.0385 6.01191 20.8551 6.08251 20.7112 6.19923C20.5293 6.34612 20.4148 6.56931 20.4116 6.78111L20.7091 6.78624C20.7106 6.67578 20.7837 6.54369 20.8898 6.45772C21.0138 6.35637 21.162 6.32563 21.264 6.31709C21.4773 6.29944 21.677 6.36206 21.8104 6.49131C21.9507 6.62625 22.0212 6.83463 21.9991 7.04871C21.9702 7.32599 21.7868 7.62433 21.5193 7.82816C21.2976 7.99669 21.0259 8.10828 20.6649 8.17774C20.5204 8.20564 20.3759 8.225 20.2314 8.24436C20.1715 8.25233 20.1116 8.26429 20.0517 8.27283L19.9356 8.22671C19.3491 7.99327 17.8484 6.63422 17.2788 6.09788C16.7985 5.79442 16.2667 5.55301 15.7113 5.36854C15.6955 4.47692 15.9115 3.6747 16.376 3.09339ZM21.1704 13.9766C20.6849 13.5809 20.079 13.4238 19.4653 13.5354C18.8541 13.6464 18.3066 14.0097 17.9246 14.5591C17.5651 15.0761 17.4217 15.6841 17.4485 16.2723C17.1947 16.2808 16.9388 16.2882 16.6808 16.2945C16.6535 16.1914 16.6314 16.0867 16.614 15.9814C16.4543 14.989 16.7459 13.9237 17.4569 12.9006C18.5798 11.2853 20.5914 10.0003 22.1925 10.0003C22.7274 10.0003 23.2161 10.1432 23.6107 10.4654C24.7899 11.4276 24.782 13.6999 24.0794 15.687C23.4457 15.7849 22.7631 15.8743 22.039 15.9529C22.048 15.1934 21.7542 14.4532 21.1704 13.9766ZM21.739 15.9848C20.5089 16.1117 19.1668 16.2074 17.7459 16.2626C17.7202 15.7451 17.8463 15.2099 18.1631 14.7532C18.4989 14.2704 18.9792 13.951 19.5147 13.8537C19.6271 13.8332 19.739 13.8235 19.8494 13.8235C20.264 13.8235 20.6602 13.9647 20.9912 14.2351C21.5057 14.6547 21.7574 15.3118 21.739 15.9848ZM14.7334 16.3139C13.5684 16.3093 12.4392 16.2768 11.3609 16.2211C10.5464 15.6141 10.0073 14.6041 10.0073 13.4545C10.0073 11.599 11.3998 10.0896 13.1123 10.0896C14.8248 10.0896 16.2178 11.599 16.2178 13.4545C16.2178 14.665 15.6209 15.7212 14.7334 16.3139ZM16.1564 16.3047C15.8941 16.3087 15.6298 16.3116 15.3639 16.3127C15.633 16.0639 15.8684 15.7741 16.0576 15.449C16.057 15.6608 16.0681 15.8709 16.1017 16.0781C16.1143 16.155 16.1385 16.229 16.1564 16.3047ZM10.4634 10.8657C10.5259 10.8475 10.58 10.8275 10.6399 10.8087C10.3 11.1817 10.0346 11.6315 9.86066 12.1308C9.81915 12.0272 9.78131 11.923 9.74979 11.8171C9.67727 11.5762 9.60948 11.3337 9.54275 11.0917C9.81074 11.0393 10.1139 10.9676 10.4634 10.8657ZM9.4345 10.7017C9.21748 9.91258 8.9931 9.13256 8.6505 8.40264C8.74666 8.15212 8.85385 7.90218 8.98732 7.65451C9.1313 7.38919 9.31049 7.15632 9.50912 6.94281C9.96208 8.57288 11.7576 9.29995 12.5169 9.53794C12.188 9.74461 11.4455 10.1614 10.3662 10.4762C10.0046 10.5816 9.69987 10.6516 9.4345 10.7017ZM20.1457 8.60135L20.1731 8.57971C20.2046 8.57402 20.2361 8.56775 20.2677 8.5632C20.4174 8.54327 20.5672 8.52334 20.7169 8.49431C21.1221 8.41574 21.4311 8.28763 21.6906 8.0912C21.874 7.95114 22.0206 7.77635 22.1257 7.58732C22.2187 7.55772 22.3007 7.56739 22.3506 7.62831C22.4221 7.71543 22.421 7.86346 22.348 8.00637C22.1494 8.39638 21.4678 8.72717 20.1457 8.60135ZM16.975 6.5528C17.1458 6.71564 18.4516 7.95114 19.326 8.51993C18.3959 9.12572 15.8143 10.5064 13.0797 9.37852C13.0056 7.71087 14.5878 6.14628 15.0224 5.74944C15.726 5.92081 16.3965 6.18841 16.975 6.5528ZM14.5568 5.65265C13.9457 6.25332 12.7476 7.62319 12.7029 9.17355C12.0398 8.972 10.1449 8.25802 9.82545 6.64219C11.0146 5.63841 12.8448 5.35032 14.5568 5.65265ZM3.25179 4.7041L3.63433 4.65001L3.44831 4.28448C2.92914 3.26192 2.8745 2.30881 3.29592 1.60053C3.67794 0.959437 4.42096 0.588216 5.185 0.650846C5.97899 0.71803 6.62953 1.23501 6.97056 2.06968L7.10928 2.40845L7.3757 2.17615C8.11294 1.53335 9.39457 1.6569 10.1765 2.44717C10.6147 2.89013 10.8775 3.56311 10.8622 4.2042C10.8512 4.6631 10.6983 5.05027 10.4308 5.29338L9.10661 6.49985L9.21958 6.44861C8.9558 6.71734 8.72459 7.02309 8.53804 7.36983C8.46133 7.51274 8.39196 7.65621 8.32786 7.80026C8.25061 7.67216 8.17337 7.54348 8.08561 7.41993C6.80609 5.62361 3.89707 4.60901 1.85823 5.57521C2.20714 5.11745 2.73735 4.77698 3.25179 4.7041ZM1.72056 6.32506C3.36003 5.30591 5.87705 5.83029 7.21543 7.21041C8.32418 8.35311 8.74298 10.0321 9.14444 11.5751C9.26898 12.0545 9.45027 12.5037 9.67254 12.9285C9.64995 13.101 9.63471 13.2752 9.63471 13.4545C9.63471 13.4921 9.63944 13.5286 9.64049 13.5656L7.17076 11.6759L5.36944 6.91093L5.09357 7.03334L6.71781 11.3286L4.04577 9.28457L3.33901 7.0248L3.05683 7.12842L3.63223 8.96858L1.54242 7.36983L1.37112 7.63344L6.92747 11.8843L6.92905 11.8888L6.93167 11.8877L9.67359 13.9852C9.68358 14.0632 9.69619 14.1401 9.7109 14.2163C9.55536 14.1725 9.37828 14.1702 9.11081 14.2163C8.28897 14.3587 7.52756 14.628 6.67945 14.6331C4.74728 14.6451 2.98117 13.7409 1.87767 12.001C0.853526 10.3874 -0.334569 7.60269 1.72056 6.32506ZM2.22133 13.3145C2.63751 13.7597 3.06734 14.1252 3.47038 14.3638C4.81717 15.1603 6.37993 15.3477 7.88278 15.0977C8.58849 14.9804 9.26898 14.694 9.94579 14.9998C10.1334 15.449 10.3998 15.8504 10.7261 16.1852C8.5412 16.0502 6.59012 15.8202 5.02105 15.535C2.78937 15.0635 1.55871 14.4754 1.55871 13.9829C1.55871 13.7717 1.78887 13.5434 2.22133 13.3145ZM14.9961 25.8796C11.2169 25.8796 8.69989 24.9271 8.60163 24.524C8.60215 24.5228 8.66153 24.3885 9.09715 24.2108C10.8922 24.8229 12.8932 25.1674 15.005 25.1674C17.1127 25.1674 19.11 24.8246 20.9024 24.2148C21.3107 24.3811 21.3838 24.5086 21.389 24.5086C21.2887 24.9282 18.7727 25.8796 14.9961 25.8796ZM15.0056 24.5974C8.21856 24.5974 2.59179 20.9769 1.67484 16.2882C3.1015 17.4315 6.46873 17.6365 8.46658 17.756C8.67204 17.768 8.85858 17.7794 9.02201 17.7908C11.2327 17.9416 13.5132 18.0618 15.818 18.0618C18.481 18.0618 21.1767 17.9012 23.8314 17.4418L23.7841 17.1229C18.862 17.9747 13.7891 17.7925 9.0404 17.4685C8.87645 17.4571 8.68886 17.4457 8.48287 17.4338C6.51707 17.3159 2.69058 17.0865 1.59707 15.7992C1.56975 15.5788 1.54925 15.3568 1.54295 15.1319C2.21398 15.4558 3.19188 15.7388 4.36421 15.9785C7.05831 16.6264 11.0398 16.9595 14.9961 16.9595C18.9004 16.9595 22.8314 16.6355 25.5229 16.0047C26.7515 15.7593 27.773 15.4672 28.4677 15.1319C28.3258 20.3688 22.3412 24.5974 15.0056 24.5974Z" fill="#FFFBED"/>
</svg>
