<svg width="28" height="26" viewBox="0 0 28 26" fill="none" xmlns="http://www.w3.org/2000/svg">
<path d="M18.3521 11.8422C18.3502 11.8422 18.3483 11.8422 18.3465 11.8422H16.0699V9.37505C16.073 8.87747 15.7024 8.47134 15.2421 8.46802C15.2402 8.46802 15.2383 8.46802 15.2365 8.46802H11.9476C11.4873 8.46802 11.1142 8.87142 11.1142 9.369V11.8361H8.83763C8.37736 11.8328 8.00169 12.2334 7.99861 12.731C7.99861 12.7351 7.99861 12.7391 7.99861 12.7432V16.2927C7.99861 16.7902 8.37176 17.1936 8.83203 17.1936H11.1142V19.6547C11.1111 20.1523 11.4817 20.5584 11.942 20.5617C11.9439 20.5617 11.9458 20.5617 11.9476 20.5617H15.2309C15.6912 20.5617 16.0643 20.1583 16.0643 19.6608V17.1936H18.3465C18.8067 17.197 19.1824 16.7963 19.1855 16.2987C19.1855 16.2967 19.1855 16.2946 19.1855 16.2927V12.7432C19.1855 12.2456 18.8124 11.8422 18.3521 11.8422ZM18.0668 15.9843H15.5106C15.2017 15.9843 14.9512 16.255 14.9512 16.589V19.3524H12.2328V16.589C12.2328 16.255 11.9824 15.9843 11.6735 15.9843H9.1173V13.0515H11.6735C11.9824 13.0515 12.2328 12.7808 12.2328 12.4469V9.67739H14.9457V12.4408C14.9457 12.7747 15.1961 13.0455 15.505 13.0455H18.0668V15.9843Z" fill="#FFFBED"/>
<path d="M23.3246 3.94498H18.7156V1.81649C18.7446 0.845209 18.0398 0.032359 17.1414 0.000990902C17.0956 -0.0005964 17.0498 -0.000142953 17.004 0.00242696H10.18C9.2823 -0.0481399 8.51663 0.697589 8.46978 1.66804C8.46741 1.71747 8.46692 1.76698 8.46846 1.81649V3.93289H3.85947C2.08076 3.93289 0 5.02737 0 8.10522V21.2572C0 24.335 2.08076 25.4295 3.85947 25.4295H23.3246C25.1033 25.4295 27.1841 24.335 27.1841 21.2572V8.11732C27.1841 5.03946 25.1089 3.94498 23.3246 3.94498ZM9.58714 1.81649C9.58714 1.64113 9.58714 1.16947 10.1856 1.16947H17.004C17.6025 1.16947 17.6025 1.63508 17.6025 1.81649V3.93289H9.58714V1.81649ZM26.0654 21.2572C26.0654 23.9299 24.1524 24.2201 23.3246 24.2201H3.85947C3.03723 24.2201 1.11869 23.9299 1.11869 21.2572V8.11732C1.11869 5.4446 3.03164 5.15436 3.85947 5.15436H23.3246C24.1468 5.15436 26.0654 5.4446 26.0654 8.11732V21.2572Z" fill="#FFFBED"/>
</svg>
