<svg width="24" height="26" viewBox="0 0 24 26" fill="none" xmlns="http://www.w3.org/2000/svg">
<path d="M18.5548 7.31399C18.5548 3.2754 15.525 0 11.7892 0C8.05347 0 5.02368 3.2754 5.02368 7.31399C5.02368 11.3526 8.05347 14.628 11.7892 14.628C15.525 14.628 18.5548 11.3526 18.5548 7.31399ZM6.78861 7.31399C6.78861 4.3248 9.02418 1.908 11.7892 1.908C14.5543 1.908 16.7898 4.3248 16.7898 7.31399C16.7898 10.3032 14.5543 12.72 11.7892 12.72C9.02418 12.72 6.78861 10.3032 6.78861 7.31399Z" fill="#FFFBED"/>
<path d="M0.464314 25.8216C0.611391 25.917 0.758468 25.9488 0.905545 25.9488C1.1997 25.9488 1.52327 25.7898 1.67035 25.4718C3.72943 21.5286 7.61226 19.08 11.7893 19.08C15.9662 19.08 19.8491 21.5286 21.9376 25.4718C22.1729 25.917 22.7318 26.076 23.1436 25.8216C23.5554 25.5672 23.7025 24.963 23.4672 24.5178C21.0845 20.0022 16.6134 17.172 11.7893 17.172C6.96512 17.172 2.49398 20.0022 0.111329 24.5178C-0.123994 24.963 0.0230829 25.5672 0.464314 25.8216Z" fill="#FFFBED"/>
</svg>
