<svg width="80" height="58" viewBox="0 0 80 58" fill="none" xmlns="http://www.w3.org/2000/svg">
<path d="M76.3693 0H3.63067C2.16 0 1.93867 0.692 3.13867 1.544L38.0573 26.3267C39.1293 27.4253 40.8707 27.4253 41.9427 26.3267L76.8613 1.544C78.0613 0.692 77.84 0 76.3693 0Z" fill="#259F88"/>
<path d="M80 6.86801V52.5347C80 55.2947 77.76 57.5347 75 57.5347H5C2.24 57.5347 0 55.2947 0 52.5347V6.86801C0 5.39601 0.970667 4.89868 2.16667 5.75601L38.0573 31.516C39.1293 32.616 40.8707 32.616 41.9427 31.516L77.8333 5.75601C79.0293 4.89868 80 5.39601 80 6.86801Z" fill="#259F88"/>
</svg>
